# xmcd
#
# Track frame offsets: 
#        150
#        2450
#        14403
#        30982
#        50545
#        73459
#        85207
#        100574
#        115454
#        129453
#        143297
#        156574
#
# Disc length: 2379 seconds
#
# Revision: 0
# Processed by: cddbd v1.4PL0 Copyright (c) Steve Scherf et al.
# Submitted via: ExactAudioCopy v0.90b4
#
DISCID=9509490c
DTITLE=Chumps - The Chumps
DYEAR=2003
DGENRE=Blues
TTITLE0=Intro
TTITLE1=Lump On Your Stump
TTITLE2=Mean Mean Boy
TTITLE3=Two Time Boogie
TTITLE4=Legs
TTITLE5=Pink Champagne And Caviar
TTITLE6=Who Do You Love
TTITLE7=I Should Be Dead
TTITLE8=The Bird Preacher
TTITLE9=Blind Man
TTITLE10=Booger Boy
TTITLE11=Jump Back
EXTD=
EXTT0=
EXTT1=
EXTT2=
EXTT3=
EXTT4=
EXTT5=
EXTT6=
EXTT7=
EXTT8=
EXTT9=
EXTT10=
EXTT11=
PLAYORDER=
